<?xml version="1.0" encoding="UTF-8" standalone="no"?>
<!-- Created with Inkscape (http://www.inkscape.org/) -->

<svg
   xmlns:dc="http://purl.org/dc/elements/1.1/"
   xmlns:cc="http://creativecommons.org/ns#"
   xmlns:rdf="http://www.w3.org/1999/02/22-rdf-syntax-ns#"
   xmlns:svg="http://www.w3.org/2000/svg"
   xmlns="http://www.w3.org/2000/svg"
   xmlns:xlink="http://www.w3.org/1999/xlink"
   xmlns:sodipodi="http://sodipodi.sourceforge.net/DTD/sodipodi-0.dtd"
   xmlns:inkscape="http://www.inkscape.org/namespaces/inkscape"
   height="48"
   id="svg2811"
   inkscape:export-filename="folder.png"
   inkscape:export-xdpi="11.25"
   inkscape:export-ydpi="11.25"
   inkscape:output_extension="org.inkscape.output.svgz.inkscape"
   inkscape:version="0.48.4 r9939"
   sodipodi:docname="folder.svg"
   sodipodi:version="0.32"
   version="1.0"
   width="48">
  <metadata
     id="metadata3">
    <rdf:RDF>
      <cc:Work
         rdf:about="">
        <dc:title />
        <dc:description />
        <dc:subject>
          <rdf:Bag>
            <rdf:li>unsorted</rdf:li>
          </rdf:Bag>
        </dc:subject>
        <dc:publisher>
          <cc:Agent
             rdf:about="http://www.openclipart.org/">
            <dc:title>Open Clip Art Library, Source: Oxygen Icons, Source: Oxygen Icons, Source: Oxygen Icons, Source: Oxygen Icons</dc:title>
          </cc:Agent>
        </dc:publisher>
        <dc:creator>
          <cc:Agent>
            <dc:title />
          </cc:Agent>
        </dc:creator>
        <dc:rights>
          <cc:Agent>
            <dc:title />
          </cc:Agent>
        </dc:rights>
        <dc:date />
        <dc:format>image/svg+xml</dc:format>
        <dc:type
           rdf:resource="http://purl.org/dc/dcmitype/StillImage" />
        <cc:license
           rdf:resource="http://creativecommons.org/licenses/by-sa/3.0/ or http://creativecommons.org/licenses/LGPL/2.1/" />
        <dc:language>en</dc:language>
      </cc:Work>
    </rdf:RDF>
  </metadata>
  <defs
     id="defs2813">
    <linearGradient
       gradientTransform="matrix(1.0033808,0,0,1,-8.2378002,8)"
       gradientUnits="userSpaceOnUse"
       id="linearGradient3067"
       x1="122.74438"
       x2="122.39215"
       y1="96.721588"
       y2="20.043535">
      <stop
         id="stop3069"
         offset="0"
         style="stop-color:#88c4ff;stop-opacity:1;" />
      <stop
         id="stop3077"
         offset="0.13053299"
         style="stop-color:#b3d9ff;stop-opacity:1;" />
      <stop
         id="stop3071"
         offset="0.72006166"
         style="stop-color:#71A8F5" />
      <stop
         id="stop3073"
         offset="1"
         style="stop-color:#508ed9;stop-opacity:1;" />
    </linearGradient>
    <linearGradient
       id="linearGradient2822">
      <stop
         id="stop2824"
         offset="0"
         style="stop-color:#ffffff;stop-opacity:1;" />
      <stop
         id="stop2826"
         offset="1"
         style="stop-color:#ffffff;stop-opacity:0;" />
    </linearGradient>
    <linearGradient
       gradientTransform="matrix(0.37253612,0,0,0.37129585,-2.7533966,84.407572)"
       gradientUnits="userSpaceOnUse"
       id="XMLID_9_"
       x1="71.999496"
       x2="71.999496"
       y1="14.2578"
       y2="19.9583">
      <stop
         id="stop46"
         offset="0.25"
         style="stop-color:#71a8f5;stop-opacity:0;" />
      <stop
         id="stop48"
         offset="1"
         style="stop-color:#0057ae;stop-opacity:1" />
    </linearGradient>
    <linearGradient
       gradientTransform="matrix(1.0033876,0,0,1,1.7561237,8)"
       gradientUnits="userSpaceOnUse"
       id="XMLID_8_"
       x1="72.000504"
       x2="72.000504"
       y1="96"
       y2="20.0005">
      <stop
         id="stop35"
         offset="0"
         style="stop-color:#cfe7ff;stop-opacity:1;" />
      <stop
         id="stop37"
         offset="0.5917"
         style="stop-color:#71A8F5" />
      <stop
         id="stop39"
         offset="1"
         style="stop-color:#2C72C7" />
    </linearGradient>
    <filter
       height="1.768"
       id="filter2807"
       inkscape:collect="always"
       width="1.0512"
       x="-0.025599999"
       y="-0.384"
       color-interpolation-filters="sRGB">
      <feGaussianBlur
         id="feGaussianBlur2809"
         inkscape:collect="always"
         stdDeviation="1.28" />
    </filter>
    <linearGradient
       gradientTransform="matrix(0.37129585,0,0,0.37129585,-2.6652246,84.407572)"
       gradientUnits="userSpaceOnUse"
       id="XMLID_6_"
       x1="72.000504"
       x2="72.000504"
       y1="96"
       y2="0.00048828119">
      <stop
         id="stop7"
         offset="0"
         style="stop-color:#00479E" />
      <stop
         id="stop9"
         offset="0.0769"
         style="stop-color:#2C72C7" />
      <stop
         id="stop11"
         offset="0.58579999"
         style="stop-color:#6ea1df;stop-opacity:1;" />
      <stop
         id="stop13"
         offset="0.96450001"
         style="stop-color:#adcbee;stop-opacity:1;" />
    </linearGradient>
    <linearGradient
       gradientTransform="translate(10,0)"
       gradientUnits="userSpaceOnUse"
       id="linearGradient2828"
       inkscape:collect="always"
       x1="22.413761"
       x2="22.413761"
       xlink:href="#linearGradient2822"
       y1="28.5"
       y2="34.472866" />
    <linearGradient
       gradientTransform="matrix(0.37255365,0,0,0.37129585,-2.7557761,84.407572)"
       gradientUnits="userSpaceOnUse"
       id="linearGradient2838"
       inkscape:collect="always"
       x1="72.000504"
       x2="72.000504"
       xlink:href="#XMLID_8_"
       y1="96"
       y2="20.0005" />
    <clipPath
       clipPathUnits="userSpaceOnUse"
       id="clipPath2844">
      <path
         d="m 133.86613,100.978 c -0.0733,1.391 -1.27028,2.522 -2.667,2.522 l -114.386178,0 c -1.397716,0 -2.593752,-1.132 -2.667005,-2.521 0,0 -3.637281,-70.012 -3.637281,-70.022 -0.04715,-0.656 0.164557,-1.272 0.597018,-1.737 0.43346,-0.464 1.034488,-0.719 1.693719,-0.719 l 122.413277,0 c 0.65922,0 1.26025,0.255 1.69071,0.718 0.43045,0.463 0.63915,1.079 0.58798,1.747 l -3.62524,70.012 z"
         id="path2846"
         style="fill:#ff00bf"
         inkscape:connector-curvature="0" />
    </clipPath>
    <filter
       height="1.8302754"
       id="filter2848"
       inkscape:collect="always"
       width="1.0247144"
       x="-0.012357198"
       y="-0.41513768"
       color-interpolation-filters="sRGB">
      <feGaussianBlur
         id="feGaussianBlur2850"
         inkscape:collect="always"
         stdDeviation="0.65388509" />
    </filter>
    <linearGradient
       gradientTransform="matrix(0.37255112,0,0,0.37129585,-2.7535206,84.407572)"
       gradientUnits="userSpaceOnUse"
       id="linearGradient3109"
       inkscape:collect="always"
       x1="122.74438"
       x2="122.74438"
       xlink:href="#linearGradient3067"
       y1="96.721588"
       y2="20" />
  </defs>
  <sodipodi:namedview
     bordercolor="#666666"
     borderopacity="1.0"
     id="base"
     inkscape:current-layer="layer1"
     inkscape:cx="27.531484"
     inkscape:cy="22.692898"
     inkscape:document-units="px"
     inkscape:pageopacity="0.0"
     inkscape:pageshadow="2"
     inkscape:showpageshadow="false"
     inkscape:window-height="1056"
     inkscape:window-width="1855"
     inkscape:window-x="65"
     inkscape:window-y="24"
     inkscape:zoom="16"
     pagecolor="#ffffff"
     showborder="true"
     showgrid="false"
     inkscape:window-maximized="1" />
  <g
     id="layer1"
     inkscape:groupmode="layer"
     inkscape:label="Livello 1"
     transform="translate(0,-80)">
    <path
       d="m 44.111737,88.491827 c 0.0034,-0.61264 -0.494941,-1.113888 -1.107579,-1.113888 l -26.005183,0 -2.445354,-2.445355 c -0.288869,-0.288868 -0.859179,-0.525012 -1.267607,-0.525012 l -7.7827324,0 c -0.8168519,0 -1.4851829,0.668332 -1.4851829,1.485182 l 0,2.599073 c 0,0 0.3712963,31.560153 -1.1138866,31.560153 l 42.3277259,0 c -1.485188,0 -1.120201,-31.560153 -1.120201,-31.560153 z"
       id="path15"
       style="fill:url(#XMLID_6_)"
       inkscape:connector-curvature="0" />
    <g
       id="g17"
       style="opacity:0.6;filter:url(#filter2807)"
       transform="matrix(0.37253612,0,0,0.37129585,-2.7533966,84.407572)">
      <path
         d="m 132,96 c 0,2.2 -3.6,4 -8,4 l -104,0 c -4.4,0 -8,-1.8 -8,-4 0,-2.2 3.6,-4 8,-4 l 104,0 c 4.4,0 8,1.8 8,4 z"
         id="path19"
         inkscape:connector-curvature="0" />
    </g>
    <path
       d="m 46.481712,118.93957 c -0.03204,0.61189 -0.561433,1.11241 -1.176144,1.11241 l -42.4708239,0 c -0.6147082,0 -1.1441045,-0.50052 -1.1765163,-1.11241 L 0.30810463,92.944406 C 0.26340086,92.333624 0.7298323,91.833488 1.3445405,91.833488 l 45.4512315,0 c 0.61471,0 1.078908,0.499764 1.031968,1.110546 l -1.346028,25.995536 z"
       id="path30"
       style="opacity:0.9;fill:url(#linearGradient3109);fill-opacity:1"
       inkscape:connector-curvature="0" />
    <path
       d="m 4.2334856,91.833488 c -0.010773,-1.63036 -0.023771,-2.824819 -0.029713,-3.341661 l 0,-2.599073 c 0,-0.7166 0.5830285,-1.299534 1.2997393,-1.299534 l 7.7839546,0 c 0.360958,0 0.881595,0.215722 1.136716,0.470802 l 2.499955,2.499565 26.086141,0 c 0.246581,0 0.478307,0.09653 0.653213,0.272159 0.174908,0.175623 0.270716,0.408425 0.269231,0.654966 0,0 0.02673,-0.02673 0.04048,-0.04047 -0.04531,0.225377 -0.05014,0.807197 -0.06053,2.329139 l -0.0037,1.054109 0.182702,0 c 0.01147,-2.054009 0.02636,-3.341662 0.02636,-3.341662 0.0034,-0.61264 -0.495015,-1.113888 -1.10775,-1.113888 l -26.009264,0 -2.445738,-2.445355 c -0.288918,-0.288863 -0.859318,-0.525007 -1.26781,-0.525007 l -7.7839539,0 c -0.8169805,0 -1.4854169,0.668332 -1.4854169,1.485182 l 0,2.599073 c 0,0 0.015222,1.287653 0.027107,3.341661 l 0.1882761,0 z"
       id="path32"
       style="fill:#5293ee;fill-opacity:1"
       inkscape:connector-curvature="0" />
    <path
       d="m 3.9753489,89.605712 c 0.00336,0.649769 0.00672,1.394217 0.00973,2.227776 l 40.1683283,0 c 0.0034,-0.833559 0.0067,-1.578007 0.0098,-2.227776 l -40.187705,0 z"
       id="path50"
       style="opacity:0.5;fill:url(#XMLID_9_)"
       inkscape:connector-curvature="0" />
    <path
       clip-path="url(#clipPath2844)"
       d="m 12.8125,28.5 c -0.659231,0 -1.28529,0.254751 -1.71875,0.71875 -0.432461,0.465 -0.640903,1.093999 -0.59375,1.75 0,1.87e-4 0.05999,1.264038 0.0625,1.3125 0.08524,-0.394993 0.252787,-0.763085 0.53125,-1.0625 C 11.52721,30.754751 12.153269,30.5 12.8125,30.5 l 122.40625,0 c 0.65922,1e-6 1.25704,0.25575 1.6875,0.71875 0.27717,0.298127 0.44814,0.664466 0.53125,1.0625 l 0.0625,-1.3125 c 0.0512,-0.668 -0.1633,-1.287 -0.59375,-1.75 -0.43046,-0.463 -1.02828,-0.718749 -1.6875,-0.71875 l -122.40625,0 z"
       id="path2788"
       style="fill:url(#linearGradient2828);fill-opacity:1;filter:url(#filter2848)"
       transform="matrix(0.37129585,0,0,0.37129585,-3.4078171,81.437205)"
       inkscape:connector-curvature="0" />
    <path
       d="m 46.796087,91.833488 -45.4515396,0 c -0.61471274,0 -1.08114921,0.500136 -1.03644277,1.110918 L 1.6586111,118.93957 c 0.032043,0.61189 0.5614376,1.11241 1.1761503,1.11241 l 42.4711116,0 c 0.614714,0 1.144112,-0.50052 1.176151,-1.11241 l 1.345665,-25.995536 c 0.04731,-0.610782 -0.416888,-1.110546 -1.031602,-1.110546 z m -0.499968,27.096432 c -0.02722,0.51647 -0.47165,0.93641 -0.990246,0.93641 l -42.4711116,0 c -0.5189656,0 -0.9630489,-0.42031 -0.9902477,-0.93604 0,0 -1.35050778,-25.995166 -1.35050778,-25.998879 -0.0175044,-0.243571 0.0610959,-0.472289 0.22167025,-0.644942 0.16094284,-0.172281 0.38410173,-0.266961 0.62887123,-0.266961 l 45.4515396,0 c 0.244767,0 0.467926,0.09468 0.627754,0.26659 0.159825,0.171909 0.237314,0.400628 0.218315,0.648654 l -1.346037,25.995168 z"
       id="path2836"
       style="fill:url(#linearGradient2838)"
       inkscape:connector-curvature="0" />
  </g>
</svg>
